<svg width="31" height="30" viewBox="0 0 31 30" fill="none" xmlns="http://www.w3.org/2000/svg">
<path d="M21.8125 25.35C20.5875 26.5375 19.25 26.35 17.9625 25.7875C16.6 25.2125 15.35 25.1875 13.9125 25.7875C12.1125 26.5625 11.1625 26.3375 10.0875 25.35C3.98746 19.0625 4.88746 9.4875 11.8125 9.1375C13.5 9.225 14.675 10.0625 15.6625 10.1375C17.1375 9.8375 18.55 8.975 20.125 9.0875C22.0125 9.2375 23.4375 9.9875 24.375 11.3375C20.475 13.675 21.4 18.8125 24.975 20.25C24.2625 22.125 23.3375 23.9875 21.8 25.3625L21.8125 25.35ZM15.5375 9.0625C15.35 6.275 17.6125 3.975 20.2125 3.75C20.575 6.975 17.2875 9.375 15.5375 9.0625Z" fill="black"/>
</svg>
