<svg width="21" height="20" viewBox="0 0 21 20" fill="none" xmlns="http://www.w3.org/2000/svg">
<path d="M9.23374 3.08014L9.23451 3.07952C9.92136 2.52788 11.0685 2.52642 11.7761 3.08967C11.7763 3.08986 11.7765 3.09005 11.7768 3.09025L17.2295 7.4524C17.4477 7.63148 17.6665 7.94003 17.8138 8.32555C17.9608 8.71025 18.0043 9.08703 17.9624 9.36737L16.9142 15.6399C16.7533 16.5574 15.8315 17.3332 14.9167 17.3332H6.08332C5.14935 17.3332 4.25504 16.5801 4.09425 15.6494C4.09414 15.6487 4.09403 15.648 4.09392 15.6474L3.04465 9.36836L3.04426 9.36608C2.99664 9.08509 3.03618 8.70907 3.18227 8.32596C3.32833 7.94295 3.54937 7.6355 3.77367 7.45653L3.77541 7.45514L9.23374 3.08014ZM10.5 16.6249C11.3939 16.6249 12.125 15.8938 12.125 14.9999V12.4999C12.125 11.6059 11.3939 10.8749 10.5 10.8749C9.60604 10.8749 8.87499 11.6059 8.87499 12.4999V14.9999C8.87499 15.8938 9.60604 16.6249 10.5 16.6249Z" stroke="#878787" stroke-width="2"/>
</svg>
