<svg width="20" height="20" viewBox="0 0 20 20" fill="none" xmlns="http://www.w3.org/2000/svg">
<path fill-rule="evenodd" clip-rule="evenodd" d="M2 9.66667C2 6.52417 2 4.9525 2.97667 3.97667C3.9525 3 5.52417 3 8.66667 3H10.3333C13.4758 3 15.0475 3 16.0233 3.97667C17 4.9525 17 6.52417 17 9.66667V11.3333C17 14.4758 17 16.0475 16.0233 17.0233C15.0475 18 13.4758 18 10.3333 18H8.66667C5.52417 18 3.9525 18 2.97667 17.0233C2 16.0475 2 14.4758 2 11.3333V9.66667ZM14.5 6.75C14.5 7.08152 14.3683 7.39946 14.1339 7.63388C13.8995 7.8683 13.5815 8 13.25 8C12.9185 8 12.6005 7.8683 12.3661 7.63388C12.1317 7.39946 12 7.08152 12 6.75C12 6.41848 12.1317 6.10054 12.3661 5.86612C12.6005 5.6317 12.9185 5.5 13.25 5.5C13.5815 5.5 13.8995 5.6317 14.1339 5.86612C14.3683 6.10054 14.5 6.41848 14.5 6.75ZM11.1667 11.3333C11.1667 11.7754 10.9911 12.1993 10.6785 12.5118C10.366 12.8244 9.94203 13 9.5 13C9.05797 13 8.63405 12.8244 8.32149 12.5118C8.00893 12.1993 7.83333 11.7754 7.83333 11.3333C7.83333 10.8913 8.00893 10.4674 8.32149 10.1548C8.63405 9.84226 9.05797 9.66667 9.5 9.66667C9.94203 9.66667 10.366 9.84226 10.6785 10.1548C10.9911 10.4674 11.1667 10.8913 11.1667 11.3333ZM12.8333 11.3333C12.8333 12.2174 12.4821 13.0652 11.857 13.6904C11.2319 14.3155 10.3841 14.6667 9.5 14.6667C8.61594 14.6667 7.7681 14.3155 7.14298 13.6904C6.51786 13.0652 6.16667 12.2174 6.16667 11.3333C6.16667 10.4493 6.51786 9.60143 7.14298 8.97631C7.7681 8.35119 8.61594 8 9.5 8C10.3841 8 11.2319 8.35119 11.857 8.97631C12.4821 9.60143 12.8333 10.4493 12.8333 11.3333Z" fill="#FFAB07"/>
</svg>
