<svg width="21" height="20" viewBox="0 0 21 20" fill="none" xmlns="http://www.w3.org/2000/svg">
<path d="M13.8333 5.00016H16.3333C16.5544 5.00016 16.7663 5.08796 16.9226 5.24424C17.0789 5.40052 17.1667 5.61248 17.1667 5.8335V15.0002C17.1667 15.4422 16.9911 15.8661 16.6785 16.1787C16.366 16.4912 15.942 16.6668 15.5 16.6668M15.5 16.6668C15.058 16.6668 14.6341 16.4912 14.3215 16.1787C14.0089 15.8661 13.8333 15.4422 13.8333 15.0002V4.16683C13.8333 3.94582 13.7455 3.73385 13.5893 3.57757C13.433 3.42129 13.221 3.3335 13 3.3335H4.66668C4.44566 3.3335 4.2337 3.42129 4.07742 3.57757C3.92114 3.73385 3.83334 3.94582 3.83334 4.16683V14.1668C3.83334 14.8299 4.09674 15.4658 4.56558 15.9346C5.03442 16.4034 5.6703 16.6668 6.33334 16.6668H15.5ZM7.16668 6.66683H10.5M7.16668 10.0002H10.5M7.16668 13.3335H10.5" stroke="#878787" stroke-width="2" stroke-linecap="round" stroke-linejoin="round"/>
</svg>
