<svg width="21" height="20" viewBox="0 0 21 20" fill="none" xmlns="http://www.w3.org/2000/svg">
<path d="M10.5 18.3332C5.89763 18.3332 2.16667 14.6022 2.16667 9.99984C2.16667 5.39746 5.89763 1.6665 10.5 1.6665C15.1023 1.6665 18.8333 5.39746 18.8333 9.99984C18.8333 14.6022 15.1023 18.3332 10.5 18.3332ZM10.5 16.6665C14.1819 16.6665 17.1667 13.6818 17.1667 9.99984C17.1667 6.31794 14.1819 3.33317 10.5 3.33317C6.8181 3.33317 3.83334 6.31794 3.83334 9.99984C3.83334 13.6818 6.8181 16.6665 10.5 16.6665ZM6.33334 9.99984H8C8 11.3806 9.11926 12.4998 10.5 12.4998C11.8808 12.4998 13 11.3806 13 9.99984H14.6667C14.6667 12.301 12.8012 14.1665 10.5 14.1665C8.19882 14.1665 6.33334 12.301 6.33334 9.99984Z" fill="#878787"/>
</svg>
