<svg width="20" height="20" viewBox="0 0 20 20" fill="none" xmlns="http://www.w3.org/2000/svg">
<path d="M13.9182 3H5.08182C3.37978 3 2 4.37978 2 6.08182V14.9182C2 16.6202 3.37978 18 5.08182 18H13.9182C15.6202 18 17 16.6202 17 14.9182V6.08182C17 4.37978 15.6202 3 13.9182 3Z" fill="#FFAB07"/>
<path d="M4.13749 9.95793L10.7477 7.23066C11.4023 6.94429 13.6148 6.03747 13.6148 6.03747C13.6148 6.03747 14.6375 5.64202 14.5489 6.60338C14.5216 7.00225 14.2932 8.39316 14.0682 9.89656L13.3591 14.3557C13.3591 14.3557 13.3011 15.0102 12.8204 15.1227C12.3398 15.2352 11.542 14.7238 11.4023 14.6113C11.2625 14.4988 9.27158 13.2477 8.53522 12.6272C8.45987 12.5764 8.39862 12.5073 8.35716 12.4264C8.3157 12.3455 8.29538 12.2555 8.29811 12.1646C8.30083 12.0738 8.3265 11.9851 8.37273 11.9068C8.41895 11.8286 8.48423 11.7633 8.56249 11.717C9.58522 10.7829 10.8057 9.62043 11.542 8.88066C11.8829 8.53975 12.2239 7.74543 10.8057 8.7102L6.8034 11.4068C6.59933 11.4987 6.37881 11.5485 6.15504 11.5532C5.93128 11.5579 5.70887 11.5174 5.50113 11.4341C4.64885 11.1818 3.65681 10.8409 3.65681 10.8409C3.65681 10.8409 2.97499 10.4182 4.13749 9.96134V9.95793Z" fill="white"/>
</svg>
