<svg width="20" height="20" viewBox="0 0 20 20" fill="none" xmlns="http://www.w3.org/2000/svg">
<g clip-path="url(#clip0_1_2832)">
<path fill-rule="evenodd" clip-rule="evenodd" d="M3.33335 2.5C2.89133 2.5 2.4674 2.67559 2.15484 2.98816C1.84228 3.30072 1.66669 3.72464 1.66669 4.16667V15.8333C1.66669 16.2754 1.84228 16.6993 2.15484 17.0118C2.4674 17.3244 2.89133 17.5 3.33335 17.5H16.6667C17.1087 17.5 17.5326 17.3244 17.8452 17.0118C18.1578 16.6993 18.3334 16.2754 18.3334 15.8333V4.16667C18.3334 3.72464 18.1578 3.30072 17.8452 2.98816C17.5326 2.67559 17.1087 2.5 16.6667 2.5H3.33335ZM7.18752 7.19167C7.20601 7.03235 7.26149 6.87956 7.34951 6.74548C7.43754 6.61141 7.55569 6.49977 7.69452 6.41946C7.83336 6.33915 7.98904 6.29241 8.14915 6.28295C8.30926 6.2735 8.46936 6.30159 8.61669 6.365C9.03669 6.545 9.92335 6.95 11.0467 7.59833C11.8358 8.05006 12.5982 8.547 13.33 9.08667C13.4586 9.18236 13.5631 9.3068 13.635 9.45004C13.707 9.59328 13.7445 9.75136 13.7445 9.91167C13.7445 10.072 13.707 10.2301 13.635 10.3733C13.5631 10.5165 13.4586 10.641 13.33 10.7367C12.5982 11.2758 11.8358 11.7722 11.0467 12.2233C10.2612 12.6815 9.4498 13.0938 8.61669 13.4583C8.46938 13.5219 8.30923 13.5502 8.14906 13.5408C7.98889 13.5314 7.83313 13.4847 7.69424 13.4044C7.55535 13.324 7.43719 13.2123 7.3492 13.0781C7.26122 12.944 7.20585 12.7911 7.18752 12.6317C7.08676 11.7285 7.03779 10.8204 7.04085 9.91167C7.04085 8.61917 7.13419 7.64583 7.18752 7.19167Z" fill="#878787"/>
</g>
<defs>
<clipPath id="clip0_1_2832">
<rect width="20" height="20" fill="white"/>
</clipPath>
</defs>
</svg>
